<svg xmlns="http://www.w3.org/2000/svg" viewBox="0 0 64 64">
  <defs>
    <linearGradient id="chrome" x1="0" y1="0" x2="1" y2="1">
      <stop stop-color="#fff"/><stop offset=".18" stop-color="#8490a4"/><stop offset=".38" stop-color="#f6f8ff"/><stop offset=".62" stop-color="#69727f"/><stop offset=".83" stop-color="#eef3ff"/><stop offset="1" stop-color="#8e7858"/>
    </linearGradient>
    <linearGradient id="screen" x1="0" y1="0" x2="0" y2="1"><stop stop-color="#ffd5ee"/><stop offset="1" stop-color="#f48abe"/></linearGradient>
  </defs>
  <path d="m24 14-8-10M40 14l8-10" fill="none" stroke="#404958" stroke-width="2.5" stroke-linecap="round"/>
  <circle cx="16" cy="4" r="3" fill="url(#chrome)" stroke="#454c58"/>
  <circle cx="48" cy="4" r="3" fill="url(#chrome)" stroke="#454c58"/>
  <rect x="7" y="14" width="50" height="43" rx="9" fill="url(#chrome)" stroke="#2c3442" stroke-width="2"/>
  <rect x="12" y="20" width="31" height="26" rx="4" fill="url(#screen)" stroke="#31394a" stroke-width="2"/>
  <path d="M18 33c5-7 14-7 19 0-5 7-14 7-19 0Z" fill="#fff5e4" stroke="#51374b" stroke-width="1.3"/>
  <ellipse cx="27.5" cy="33" rx="4.4" ry="5.3" fill="#bd7b38"/><circle cx="28" cy="33" r="2.4" fill="#17131b"/><circle cx="29.2" cy="31.4" r=".9" fill="#fff"/>
  <path d="M47 21h5M47 25h5M47 29h5M47 33h5M47 37h5" stroke="#626a74" stroke-width="1.6" stroke-linecap="round"/>
  <circle cx="48" cy="48.5" r="3" fill="#1f2733"/><circle cx="55" cy="48.5" r="3" fill="#ff4f82" stroke="#6e253d"/>
  <path d="M14 52h25" stroke="#f8fbff" stroke-width="1.6" stroke-linecap="round" opacity=".8"/>
</svg>
